<svg xmlns="http://www.w3.org/2000/svg" width="49.55" height="78.607" viewBox="0 0 49.55 78.607"><g transform="translate(-34.287 -52.643)"><circle cx="9.025" cy="9.025" r="9.025" transform="translate(52.938 52.643)" fill="#2f2e41"/><path d="M172.929,364.963l-.239-4.091L188.355,358l.353,6.038Z" transform="translate(-119.541 -245.361)" fill="#ffb8b8"/><path d="M4.976,0h7.9V4.976H0A4.976,4.976,0,0,1,4.976,0Z" transform="translate(53.855 107.553) rotate(86.655)" fill="#2f2e41"/><path d="M161.819,358.724l-2.6,3.166-13.449-8.53,3.84-4.672Z" transform="translate(-101.618 -239.16)" fill="#ffb8b8"/><path d="M4.976,0h7.9V4.976H0A4.976,4.976,0,0,1,4.976,0Z" transform="matrix(0.635, -0.773, 0.773, 0.635, 51.677, 128.091)" fill="#2f2e41"/><path d="M440.287,575.72l-1.778,8.383a1.337,1.337,0,0,0,1.286,1.614l17.481.282a1.337,1.337,0,0,0,1.338-1.569l-1.529-8.665a1.337,1.337,0,0,0-1.317-1.1H441.6A1.337,1.337,0,0,0,440.287,575.72Z" transform="translate(-387.574 -470.877)" fill="#2f2e41"/><path d="M410.084,573.36s-17.047-10.7-20.389-5.014c-1.671,2.841-.836,5.6.418,7.646a11.575,11.575,0,0,0,4.814,4.309l13.82,6.763,5.014-5.348-3.343-3.008Z" transform="translate(-354.472 -465.566)" fill="#2f2e41"/><path d="M469.238,578.324s22.06-6.351,17.715,5.682-20.723,7.354-20.723,7.354l-1.671-5.014,5.682-4.011Z" transform="translate(-404.936 -472.202)" fill="#2f2e41"/><circle cx="8.209" cy="8.209" r="8.209" transform="translate(53.867 55.519)" fill="#ffb8b8"/><path d="M443.351,519.865a44.12,44.12,0,0,1-10.113-1.332l-.1-.027-4.581-21.073a7.763,7.763,0,0,1,4.991-9.006,26.893,26.893,0,0,1,17.147-.343h0a7.845,7.845,0,0,1,5.226,9.28l-5.117,21.123-.072.034A17.645,17.645,0,0,1,443.351,519.865Z" transform="translate(-380.844 -412.416)" fill="#ccc"/><path d="M454.36,571.394a3.361,3.361,0,0,1,4.838-1.776l9.02-7.83.816,6.153-8.691,6.492a3.379,3.379,0,0,1-5.984-3.04Z" transform="translate(-398.008 -462.308)" fill="#ffb8b8"/><path d="M475.334,526.213a1.516,1.516,0,0,1-.433-.064,1.488,1.488,0,0,1-.99-.941l-1.089-3.085a1.5,1.5,0,0,1,.435-1.639l12.29-7.378L480.7,491.493l.123-.03a6.127,6.127,0,0,1,7.048,4.282c1.424,3.8,6.7,12.059,6.324,17.64a4.975,4.975,0,0,1-4.119,4.588L476.245,525.9A1.489,1.489,0,0,1,475.334,526.213Z" transform="translate(-410.379 -415.419)" fill="#ccc"/><path d="M455.407,569.2a3.361,3.361,0,0,0-4.838-1.776l-9.02-7.83-.816,6.153,8.691,6.492a3.379,3.379,0,0,0,5.984-3.04Z" transform="translate(-389.073 -460.849)" fill="#ffb8b8"/><path d="M422.006,526.212a1.489,1.489,0,0,1-.91-.312l-14.837-7.258a4.975,4.975,0,0,1-4.119-4.588c-.372-5.582,5.9-14.51,7.326-18.309a6.127,6.127,0,0,1,7.048-4.282l.123.03-5.847,22.281,13.293,6.71a1.5,1.5,0,0,1,.435,1.639l-1.089,3.085a1.489,1.489,0,0,1-.99.941A1.516,1.516,0,0,1,422.006,526.212Z" transform="translate(-363.37 -415.418)" fill="#ccc"/><path d="M450.647,563.718H420.9a2.342,2.342,0,0,1-2.34-2.34V545a2.342,2.342,0,0,1,2.34-2.34h29.748a2.343,2.343,0,0,1,2.34,2.34v16.378A2.343,2.343,0,0,1,450.647,563.718Z" transform="translate(-374.311 -449.573)" fill="#6c63ff"/><circle cx="2.005" cy="2.005" r="2.005" transform="translate(59.456 101.61)" fill="#fff"/><path d="M446.8,435.826a2.789,2.789,0,0,1,1.5-3.3,5.24,5.24,0,0,1,3.88-.09c1.065.331,2.062.844,3.1,1.25a6.939,6.939,0,0,0,3.26.581A3.283,3.283,0,0,0,461.2,432.5a3.236,3.236,0,0,0-.573-3.245,6.284,6.284,0,0,0-2.878-1.85,9.347,9.347,0,0,0-7.531.365,6.394,6.394,0,0,0-3.34,6.461" transform="translate(-393.018 -372.432)" fill="#2f2e41"/></g></svg>