<svg xmlns="http://www.w3.org/2000/svg" width="95.417" height="81.848" viewBox="0 0 95.417 81.848"><g transform="translate(0 -0.002)"><path d="M489.572,166.479l-43.9,14.838a2.178,2.178,0,0,1-2.758-1.365l-20.336-60.172a2.178,2.178,0,0,1,1.365-2.758l43.9-14.838a2.178,2.178,0,0,1,2.758,1.365l20.336,60.171A2.178,2.178,0,0,1,489.572,166.479Z" transform="translate(-395.634 -102.068)" fill="#e6e6e6"/><path d="M500.455,177.373,457.89,191.759a1.472,1.472,0,0,1-1.864-.922L436.142,132a1.472,1.472,0,0,1,.922-1.864l42.566-14.386a1.472,1.472,0,0,1,1.864.922l19.884,58.834A1.472,1.472,0,0,1,500.455,177.373Z" transform="translate(-407.638 -114.073)" fill="#fff"/><path d="M528.555,287.3H482.213a2.178,2.178,0,0,1-2.176-2.176V221.608a2.178,2.178,0,0,1,2.176-2.176h46.343a2.178,2.178,0,0,1,2.176,2.176v63.515A2.178,2.178,0,0,1,528.555,287.3Z" transform="translate(-446.439 -205.626)" fill="#ccc"/><path d="M538.438,296.476H493.507a1.472,1.472,0,0,1-1.47-1.47V232.9a1.472,1.472,0,0,1,1.47-1.47h44.931a1.472,1.472,0,0,1,1.47,1.47v62.1A1.472,1.472,0,0,1,538.438,296.476Z" transform="translate(-457.027 -216.214)" fill="#fff"/><path d="M575.461,367.066H545.785a.943.943,0,0,1,0-1.885h29.676a.943.943,0,0,1,0,1.885Z" transform="translate(-503.622 -334.231)" fill="#ccc"/><path d="M579.35,394.113H545.785a.943.943,0,0,1,0-1.885H579.35a.943.943,0,1,1,0,1.885Z" transform="translate(-503.622 -358.097)" fill="#ccc"/><path d="M575.461,488.279H545.786a.943.943,0,0,1,0-1.885h29.676a.943.943,0,0,1,0,1.885Z" transform="translate(-503.622 -441.187)" fill="#6c63ff"/><path d="M579.35,515.327H545.786a.943.943,0,0,1,0-1.885H579.35a.943.943,0,0,1,0,1.885Z" transform="translate(-503.622 -465.054)" fill="#ccc"/><path d="M575.461,609.492H545.786a.943.943,0,0,1,0-1.885h29.676a.943.943,0,0,1,0,1.885Z" transform="translate(-503.622 -548.143)" fill="#ccc"/><path d="M579.35,636.54H545.785a.943.943,0,0,1,0-1.885H579.35a.943.943,0,1,1,0,1.885Z" transform="translate(-503.622 -572.01)" fill="#ccc"/><path d="M343.727,417.106h-6.822a.53.53,0,0,1-.529-.529v-2.94a3.94,3.94,0,1,1,7.881,0v2.94A.53.53,0,0,1,343.727,417.106Z" transform="translate(-319.675 -373.511)" fill="#2f2e41"/><path d="M453.544,568.716a1.183,1.183,0,0,1-1.09-1.449l-3.555-2.242,1.99-.9,3.071,2.267a1.189,1.189,0,0,1-.415,2.325Z" transform="translate(-418.963 -509.774)" fill="#ffb8b8"/><path d="M381.01,498.976a.635.635,0,0,1-.332-.132l-9.78-7.581-1.261-2.243a1.244,1.244,0,0,1,.109-1.387h0a1.249,1.249,0,0,1,1.826-.142l10.9,8.841a.639.639,0,0,1,.163.9l-1.045,1.476a.634.634,0,0,1-.428.263.65.65,0,0,1-.154,0Z" transform="translate(-348.882 -441.863)" fill="#2f2e41"/><path d="M77.194,631.395l1.337.541,2.722-4.9-1.973-.8Z" transform="translate(-68.115 -552.578)" fill="#ffb8b8"/><path d="M264.922,767.259l2.632,1.065h0a1.81,1.81,0,0,1,1,2.356l-.022.055-4.31-1.744Z" transform="translate(-256.007 -689.017)" fill="#2f2e41"/><path d="M209.617,641.134h1.442l.686-5.562h-2.128Z" transform="translate(-184.962 -560.814)" fill="#ffb8b8"/><path d="M400.876,780.926h2.84a1.81,1.81,0,0,1,1.81,1.81v.059h-4.65Z" transform="translate(-376.589 -701.076)" fill="#2f2e41"/><path d="M293.468,582.581a3.421,3.421,0,0,1-1.444-.389.584.584,0,0,1-.314-.411l-3.039-15.324-7.885,14.753a.587.587,0,0,1-.333.281,2.491,2.491,0,0,1-2.944-.735.578.578,0,0,1-.066-.6l3.652-7.934,2.208-7.536,2.232-5.515.049.005,7.464.786.908,4.991.914,16.619a.578.578,0,0,1-.107.372A1.521,1.521,0,0,1,293.468,582.581Z" transform="translate(-267.625 -505.405)" fill="#2f2e41"/><circle cx="2.889" cy="2.889" r="2.889" transform="translate(18.725 37.773)" fill="#ffb8b8"/><path d="M351.632,492.189c-1.258,0-2.814-.736-4.641-2.2l-.031-.025,1.292-10.193.06,0a6.5,6.5,0,0,1,4.6,1.438l.011.011,1.01,1.3v.024l.142,7.973,0,.011a2.538,2.538,0,0,1-1.622,1.548A2.815,2.815,0,0,1,351.632,492.189Z" transform="translate(-329.014 -435.337)" fill="#6c63ff"/><path d="M329.892,496.453a.642.642,0,0,1-.619-.476l-1.774-6.715-1.124,6.118a.639.639,0,0,1-.718.518l-4.893-.683a.64.64,0,0,1-.517-.839l2.475-7.295-.554-4.274a3.2,3.2,0,0,1,3.041-3.609l.05,0,2.353,5.676.374-1.5.586-3.223.087.051a5.207,5.207,0,0,1,2.6,4.747l-.148,3.413,1.315,6.969a.641.641,0,0,1-.509.747l-1.907.363A.629.629,0,0,1,329.892,496.453Z" transform="translate(-305.414 -434.836)" fill="#2f2e41"/><path d="M360.123,421.872h-4.172l-.043-.6-.214.6h-.642l-.085-1.187-.424,1.187H353.3v-.059a3.12,3.12,0,0,1,3.117-3.117h.588a3.121,3.121,0,0,1,3.117,3.117Z" transform="translate(-334.609 -381.452)" fill="#2f2e41"/><path d="M288.127,796.167H194.5a.118.118,0,1,1,0-.235h93.626a.118.118,0,1,1,0,.235Z" transform="translate(-194.383 -714.317)" fill="#ccc"/><path d="M387.537,581.941a1.316,1.316,0,0,0,1.5,1.3,2.216,2.216,0,0,0,2.032,1.331h0a2.216,2.216,0,0,0,2.216-2.216v-1.92c0-.494-.4-.66-.895-.66h-2.642c-.494,0-.895.165-.895.66v.183A1.319,1.319,0,0,0,387.537,581.941Zm.359,0a.959.959,0,0,1,.958-.958v1.378a2.221,2.221,0,0,0,.066.536c-.022,0-.043,0-.066,0a.959.959,0,0,1-.958-.958Z" transform="translate(-364.819 -523.589)" fill="#6c63ff"/><path d="M356.832,575.372a1.183,1.183,0,0,0-1.772-.385l-3.523-2.292.013,2.184,3.344,1.842a1.189,1.189,0,0,0,1.938-1.349Z" transform="translate(-333.053 -517.337)" fill="#ffb8b8"/><path d="M325.037,500.269a.529.529,0,0,1-.374-.155l-4.486-4.486a1.186,1.186,0,0,1-.32-1.109c.384-1.679,1.32-5.69,1.715-6.678a3.49,3.49,0,0,1,1.512-1.762l.018-.009,1.42.262.125,4.381-1.716,3.676,3.648,3.444a.527.527,0,0,1,.055.709l-1.179,1.522a.53.53,0,0,1-.385.2Z" transform="translate(-305.072 -440.902)" fill="#2f2e41"/><ellipse cx="1.647" cy="0.235" rx="1.647" ry="0.235" transform="translate(24.6 56.326)" fill="#2f2e41"/></g></svg>