<svg width="72" height="71" xmlns="http://www.w3.org/2000/svg" xmlns:xlink="http://www.w3.org/1999/xlink" overflow="hidden"><defs><clipPath id="clip0"><rect x="1074" y="39" width="72" height="71"/></clipPath></defs><g clip-path="url(#clip0)" transform="translate(-1074 -39)"><path d="M35.5 7.39583C19.9785 7.39583 7.39583 19.9785 7.39583 35.5 7.39583 51.0215 19.9785 63.6042 35.5 63.6042 51.0215 63.6042 63.6042 51.0215 63.6042 35.5 63.6042 19.9785 51.0215 7.39583 35.5 7.39583ZM62.1065 34.7604 36.2396 34.7604 36.2396 8.89349C50.3529 9.30174 61.6983 20.6471 62.1065 34.7604ZM8.875 35.5C8.89305 21.0922 20.3585 9.30729 34.7604 8.89349L34.7604 35.8062 53.7825 54.8283C43.1193 64.9368 26.2804 64.4872 16.1717 53.824 11.4816 48.8765 8.86967 42.3173 8.875 35.5ZM54.8283 53.7825 37.3001 36.2544C37.2935 36.2477 37.2957 36.2418 37.3053 36.2418L62.1065 36.2418C61.9289 42.7867 59.3364 49.0345 54.8283 53.7825Z" fill="#0F4768" transform="matrix(1.01408 0 0 1 1074 39)"/></g></svg>