<svg width="72" height="71" xmlns="http://www.w3.org/2000/svg" xmlns:xlink="http://www.w3.org/1999/xlink" overflow="hidden"><defs><clipPath id="clip0"><rect x="754" y="46" width="72" height="71"/></clipPath></defs><g clip-path="url(#clip0)" transform="translate(-754 -46)"><path d="M11.8319 10.3542 10.3527 10.3542 10.3527 60.6458 60.6214 60.6458 60.6214 59.1667 11.8319 59.1667 11.8319 10.3542Z" fill="#0F4768" transform="matrix(1.01408 0 0 1 754 46)"/><path d="M25.1458 54.741 25.1458 25.8899 16.2708 25.8899 16.2708 54.741ZM17.75 27.369 23.6667 27.369 23.6667 53.2618 17.75 53.2618Z" fill="#0F4768" transform="matrix(1.01408 0 0 1 754 46)"/><path d="M36.9792 54.741 36.9792 10.3542 28.1042 10.3542 28.1042 54.741ZM29.5833 11.8333 35.5 11.8333 35.5 53.2618 29.5833 53.2618Z" fill="#0F4768" transform="matrix(1.01408 0 0 1 754 46)"/><path d="M48.8125 54.741 48.8125 25.8899 39.9375 25.8899 39.9375 54.741ZM41.4167 27.369 47.3333 27.369 47.3333 53.2618 41.4167 53.2618Z" fill="#0F4768" transform="matrix(1.01408 0 0 1 754 46)"/><path d="M51.7708 54.741 60.6458 54.741 60.6458 38.4665 51.7708 38.4665ZM53.25 39.9456 59.1667 39.9456 59.1667 53.2618 53.25 53.2618Z" fill="#0F4768" transform="matrix(1.01408 0 0 1 754 46)"/></g></svg>