<svg width="72" height="71" xmlns="http://www.w3.org/2000/svg" xmlns:xlink="http://www.w3.org/1999/xlink" overflow="hidden"><defs><clipPath id="clip0"><rect x="1074" y="542" width="72" height="71"/></clipPath></defs><g clip-path="url(#clip0)" transform="translate(-1074 -542)"><path d="M48.814 44.321 48.814 42.8418 43.6369 42.8418 43.6369 50.9773 42.1577 50.9773 42.1577 52.4564 56.2098 52.4564 56.2098 27.3106 49.967 27.3106 48.4878 28.7898 54.7306 28.7898 54.7306 36.1856 42.8958 36.1856 42.8958 37.6648 54.7306 37.6648 54.7306 42.8418 52.5119 42.8418 52.5119 44.321 54.7306 44.321 54.7306 50.9773 45.1161 50.9773 45.1161 44.321 48.814 44.321Z" fill="#0F4768" transform="matrix(1.01408 0 0 1 1074 542)"/><path d="M58.842 18.4356 57.3628 19.9148 62.8646 19.9148 62.8646 59.1127 15.4499 59.1127C16.262 58.3185 16.7897 57.2787 16.9513 56.1543L17.0104 55.4148 17.0104 19.9148 41.7702 19.9148 43.2494 18.4356 17.0104 18.4356 17.0104 16.2168C17.0104 13.3576 14.6926 11.0398 11.8333 11.0398 8.9741 11.0398 6.65625 13.3576 6.65625 16.2168L6.65625 55.4148 6.71542 56.1543C7.06895 58.5729 9.06581 60.4146 11.505 60.5719L64.3438 60.5918 64.3438 18.4356ZM8.13542 16.2168C8.13542 14.1746 9.79105 12.5189 11.8333 12.5189 13.8756 12.5189 15.5312 14.1746 15.5312 16.2168L15.5312 51.7982C13.5425 49.7559 10.2747 49.7125 8.23238 51.7012 8.19961 51.7331 8.16729 51.7654 8.13542 51.7982ZM8.13542 55.4148C8.13542 53.3725 9.79105 51.7168 11.8333 51.7168 13.8756 51.7168 15.5312 53.3725 15.5312 55.4148 15.5312 57.457 13.8756 59.1127 11.8333 59.1127 9.79201 59.1102 8.13786 57.4561 8.13542 55.4148Z" fill="#0F4768" transform="matrix(1.01408 0 0 1 1074 542)"/><path d="M32.9115 28.7898 34.3877 27.3106 23.6667 27.3106 23.6667 52.4564 37.7202 52.4564 37.7202 50.9773 36.2411 50.9773 36.2411 42.8418 31.064 42.8418 31.064 44.321 34.7619 44.321 34.7619 50.9773 25.1458 50.9773 25.1458 44.321 27.3661 44.321 27.3661 42.8418 25.1458 42.8418 25.1458 37.7188 29.6965 37.7188 30.1868 36.2396 25.1458 36.2396 25.1458 28.7898 32.9115 28.7898Z" fill="#0F4768" transform="matrix(1.01408 0 0 1 1074 542)"/><path d="M32.1719 37.2972 39.1387 34.9993 60.9158 13.1513C61.489 12.6477 61.5454 11.7748 61.0418 11.2015 61.0133 11.1692 60.9834 11.1381 60.952 11.1085L58.3635 8.52C57.8014 7.94594 56.8803 7.93617 56.3063 8.49826 56.2989 8.50543 56.2917 8.51268 56.2845 8.52L34.4712 30.3673ZM57.3236 9.57169 59.8626 12.1122 57.5884 14.3864 55.0479 11.8459ZM53.7551 13.1394 54.0022 12.8917 56.57 15.4573 56.3134 15.7324 40.3199 31.7281C40.0362 30.4478 39.0311 29.4509 37.7483 29.178ZM35.7655 31.1646 36.068 30.8613C36.3661 30.6802 36.708 30.5835 37.0568 30.5818 37.552 30.5818 38.0266 30.7806 38.374 31.1335 39.0042 31.7447 39.1012 32.7216 38.6033 33.4447L38.343 33.705 35.2537 34.7242 34.7515 34.222Z" fill="#0F4768" transform="matrix(1.01408 0 0 1 1074 542)"/></g></svg>