<svg width="72" height="72" xmlns="http://www.w3.org/2000/svg" xmlns:xlink="http://www.w3.org/1999/xlink" overflow="hidden"><defs><clipPath id="clip0"><rect x="136" y="545" width="72" height="72"/></clipPath></defs><g clip-path="url(#clip0)" transform="translate(-136 -545)"><path d="M156.243 573.493C161.211 573.495 165.24 569.468 165.241 564.5 165.242 559.532 161.216 555.504 156.248 555.502 151.28 555.501 147.251 559.527 147.25 564.495 147.25 564.497 147.25 564.498 147.25 564.5 147.25 569.467 151.277 573.493 156.243 573.493ZM156.243 557.003C160.383 557.002 163.74 560.357 163.741 564.496 163.742 568.636 160.387 571.993 156.248 571.994 152.108 571.995 148.751 568.64 148.75 564.501 148.75 564.501 148.75 564.5 148.75 564.5 148.75 560.361 152.104 557.004 156.243 557Z" fill="#0F4768"/><path d="M196.787 556.646C196.424 556.378 195.96 556.288 195.524 556.401L171.7 562.316 171.7 562.316 167.875 563.253 167.87 569.886 171.707 570.752 176.275 571.909 176.611 573.467C176.141 573.666 175.712 573.953 175.35 574.313L167.678 581.989 164.604 581.989C163.799 579.542 161.963 577.57 159.578 576.593 154.951 574.779 149.729 577.059 147.914 581.687 147.53 582.667 147.32 583.708 147.296 584.761L147.296 606.517 165.25 606.517 165.25 590.15 169.399 590.15C170.48 590.153 171.518 589.723 172.281 588.958L181.131 580.093C181.889 579.341 182.313 578.317 182.309 577.25 182.309 576.988 182.284 576.726 182.234 576.469L184.172 576.973 186.363 574.459 195.504 576.772 195.591 576.789C195.661 576.798 195.732 576.802 195.802 576.802 196.212 576.802 196.606 576.648 196.908 576.371 197.234 576.078 197.417 575.658 197.409 575.219L197.418 557.831C197.399 557.36 197.167 556.924 196.787 556.646ZM169.375 564.43 171.133 564 171.129 569.084 169.371 568.687ZM180.812 577.255C180.815 577.922 180.551 578.563 180.078 579.034L171.223 587.9C170.739 588.383 170.083 588.653 169.399 588.65L160.415 588.65 160.415 590.15 163.75 590.15 163.75 605.017 148.796 605.017 148.796 584.797C148.895 580.724 152.222 577.473 156.296 577.469 159.84 577.449 162.879 579.996 163.478 583.49L168.302 583.49 176.409 575.375C176.566 575.222 176.743 575.09 176.934 574.984L176.959 575.1 180.465 576.013C180.686 576.389 180.805 576.817 180.809 577.255ZM183.653 575.289 181.361 574.693C181.286 574.599 181.216 574.499 181.129 574.412L181.02 574.305C180.24 573.532 179.176 573.114 178.079 573.15L177.9 572.32 184.734 574.045ZM195.911 575.247C195.888 575.281 195.851 575.301 195.81 575.304L172.628 569.439 172.633 563.633 195.921 557.865Z" fill="#0F4768"/></g></svg>