<svg xmlns="http://www.w3.org/2000/svg" width="357.115" height="276.68" viewBox="0 0 357.115 276.68"><g transform="translate(-15.279 -41.181)"><path d="M283.652,251.216H253.739a6.038,6.038,0,0,1-6.031-6.031V217.2a6.038,6.038,0,0,1,6.031-6.031h29.913a6.038,6.038,0,0,1,6.031,6.031v27.983A6.038,6.038,0,0,1,283.652,251.216Z" transform="translate(-232.429 -169.99)" fill="#e6e6e6"/><path d="M433.152,251.716H403.239a6.038,6.038,0,0,1-6.031-6.031V217.7a6.038,6.038,0,0,1,6.031-6.031h29.913a6.038,6.038,0,0,1,6.031,6.031v27.983A6.038,6.038,0,0,1,433.152,251.716Z" transform="translate(-309.8 -170.249)" fill="#e6e6e6"/><path d="M582.652,252.216H552.739a6.038,6.038,0,0,1-6.031-6.031V218.2a6.038,6.038,0,0,1,6.031-6.031h29.913a6.038,6.038,0,0,1,6.031,6.031v27.983A6.038,6.038,0,0,1,582.652,252.216Z" transform="translate(-387.429 -170.508)" fill="#e6e6e6"/><path d="M283.652,381.216H253.739a6.038,6.038,0,0,1-6.031-6.031V347.2a6.038,6.038,0,0,1,6.031-6.031h29.913a6.038,6.038,0,0,1,6.031,6.031v27.983A6.038,6.038,0,0,1,283.652,381.216Z" transform="translate(-232.429 -237.31)" fill="#e6e6e6"/><path d="M433.152,381.716H403.239a6.038,6.038,0,0,1-6.031-6.031V347.7a6.038,6.038,0,0,1,6.031-6.031h29.913a6.038,6.038,0,0,1,6.031,6.031v27.983A6.038,6.038,0,0,1,433.152,381.716Z" transform="translate(-309.927 -237.81)" fill="#e6e6e6"/><path d="M582.652,382.216H552.739a6.038,6.038,0,0,1-6.031-6.031V348.2a6.038,6.038,0,0,1,6.031-6.031h29.913a6.038,6.038,0,0,1,6.031,6.031v27.983a6.038,6.038,0,0,1-6.031,6.031Z" transform="translate(-387.429 -237.31)" fill="#e6e6e6"/><path d="M283.652,511.216H253.739a6.038,6.038,0,0,1-6.031-6.031V477.2a6.038,6.038,0,0,1,6.031-6.031h29.913a6.038,6.038,0,0,1,6.031,6.031v27.983A6.038,6.038,0,0,1,283.652,511.216Z" transform="translate(-232.429 -304.549)" fill="#e6e6e6"/><path d="M433.152,511.716H403.239a6.038,6.038,0,0,1-6.031-6.031V477.7a6.038,6.038,0,0,1,6.031-6.031h29.913a6.038,6.038,0,0,1,6.031,6.031v27.983a6.038,6.038,0,0,1-6.031,6.031Z" transform="translate(-309.8 -304.808)" fill="#e6e6e6"/><path d="M582.652,512.216H552.739a6.038,6.038,0,0,1-6.031-6.031V478.2a6.038,6.038,0,0,1,6.031-6.031h29.913a6.038,6.038,0,0,1,6.031,6.031v27.983A6.038,6.038,0,0,1,582.652,512.216Z" transform="translate(-387.171 -305.067)" fill="#e6e6e6"/><path d="M718.576,617.948,695.429,636.9a6.038,6.038,0,0,1-8.487-.847L669.217,614.4a6.038,6.038,0,0,1,.847-8.487l23.147-18.947a6.038,6.038,0,0,1,8.487.847l17.725,21.654A6.038,6.038,0,0,1,718.576,617.948Z" transform="translate(-449.869 -363.77)" fill="#2e405b"/><path d="M635.469,716.556l-.449-10.1A32.634,32.634,0,0,0,619.8,702.6c7.311,5.977,6.4,17.5,11.354,25.536a19.63,19.63,0,0,0,14.395,9.071l6.118,3.746a32.893,32.893,0,0,0-6.933-26.654,31.772,31.772,0,0,0-5.839-5.426C637.427,712.735,635.469,716.556,635.469,716.556Z" transform="translate(-424.998 -424.321)" fill="#f2f2f2"/><path d="M724.641,553.635a4.427,4.427,0,0,0,.076-6.787l10.007-26.161-8,1.694-8.491,25.163a4.451,4.451,0,0,0,6.406,6.091Z" transform="translate(-475.483 -330.175)" fill="#ffb8b8"/><path d="M721.489,472.787l8.983-37.376,3.86-10.865a7.1,7.1,0,0,1,9.11-4.293h0a7.126,7.126,0,0,1,4.546,5.344l.966,5.082-17.985,62.894-.041.144-11.71-.788Z" transform="translate(-476.451 -277.977)" fill="#2f2e41"/><path d="M764.464,400.265l-20,40.451-12.654,43.013c26.659,5.2,60.109,16.319,62.516.37-1.484-44.466-6.158-58.649-15.807-77.926Z" transform="translate(-482.967 -267.853)" fill="#2f2e41"/><path d="M540.357,628.3h-6.28l-2.988-24.224h9.27Z" transform="translate(-276.754 -317.677)" fill="#ffb6b6"/><path d="M744,770.523H723.751v-.256a7.883,7.883,0,0,1,7.882-7.882h0l3.7-2.806,6.9,2.807H744Z" transform="translate(-478.797 -453.81)" fill="#2f2e41"/><path d="M647.429,614.107l-5.621,2.8-13.48-20.348,8.3-4.135Z" transform="translate(-327.079 -311.646)" fill="#ffb6b6"/><path d="M868.17,754.721l-18.124,9.033-.114-.229a7.882,7.882,0,0,1,3.538-10.57h0l2.059-4.162,7.429-.567,1.582-.789Z" transform="translate(-543.67 -447.526)" fill="#2f2e41"/><path d="M747.093,541.612l34.631,1.212,2.589,4.809s2.712,19.675,1.323,21.064-2.083,1.389-1.389,3.82,2.49,25.655,2.49,25.655,14.306,29.674,15,31.41,1.389,1.042.695,1.736A25.571,25.571,0,0,0,800.7,633.4H789.378s-6.094-15.373-11.673-21.319A33.775,33.775,0,0,1,768.8,593l-4.693-22.216-10.07,34.029s-1.736,33.682-1.389,35.418l.347,1.736-13.341.149s-1.389-2.927-.694-3.969.653-.757-.194-2.462a10.055,10.055,0,0,1-.5-4.593s5.007-68.295,5.007-69.337a3.462,3.462,0,0,0-.288-1.562v-1.414l1.33-5.01Z" transform="translate(-486.273 -341.005)" fill="#2f2e41"/><path d="M775.905,406.649l-2.357-5.64-7.3.128L758.645,411.9l-7.985,33.579s-2.868,24.529,0,25.824,37.594.606,37.594.606c-1.608-13.247-2.806-26.722-4.069-34.772C780.012,410.529,778.042,416.128,775.905,406.649Z" transform="translate(-492.064 -268.238)" fill="#0c4767"/><path d="M763.961,401.275s-15.715,9.084-16.33,13.826-2.673,62.782-2.673,62.782l5.557-3.591,1.519-21.154c-1.059-18.8,1.526-32.807,6.782-43.31Z" transform="translate(-489.773 -268.375)" fill="#2f2e41"/><circle cx="10.711" cy="10.711" r="10.711" transform="translate(267.188 108.836)" fill="#ffb8b8"/><path d="M791.165,357.48a18.624,18.624,0,0,1-2.547,6.1,4.154,4.154,0,0,1-1.389,1.578,1.519,1.519,0,0,1-1.93-.241l-.26-.212a5.53,5.53,0,0,0,1.351-1.172,1.882,1.882,0,0,0,.362-1.684,1.159,1.159,0,0,0-1.419-.758c-.627.246-1.008,1.153-1.664,1.013-.531-.116-.642-.815-.642-1.365.019-2.876-1.37-6.962-2.446-6.837a8.676,8.676,0,0,1-3.208-.429,8.406,8.406,0,0,0-3.213-.41c-.077.01-.154.024-.236.039a7.121,7.121,0,0,0-.714-1.558,8.332,8.332,0,0,1-.087,1.766,16.516,16.516,0,0,1-2.673.844c-.994.14-3.179,3.112-3.281,2.808a7.117,7.117,0,0,0-.714-1.558,8.324,8.324,0,0,1-.087,1.766c0,.024,0,.043-.01.068-.482-.642-.777-1.423-.613-.825-1.616-3.657-.989-6.277,1.553-9.36a4.89,4.89,0,0,1,1.906-1.529,2.4,2.4,0,0,1,2.345.232,7.889,7.889,0,0,1,7.826-1.669c2.649.922,4.69,1.462,5.095,4.241a5.9,5.9,0,0,1,5.65,2.75A8.9,8.9,0,0,1,791.165,357.48Z" transform="translate(-500.07 -238.569)" fill="#2f2e41"/><path d="M867.373,547.326a4.427,4.427,0,0,0-3.21-5.981L860.3,513.6l-6.187,5.343,4.708,26.137a4.451,4.451,0,0,0,8.55,2.243Z" transform="translate(-546.265 -326.509)" fill="#ffb8b8"/><path d="M833.346,484.207l-22.954-61.415.561-5.143a7.1,7.1,0,0,1,13.53-2.127l4.714,10.544,11.909,36.552,3.851,19.878Z" transform="translate(-523.637 -273.576)" fill="#2f2e41"/><path d="M769.932,782.285a.747.747,0,0,1-.749.749h-201.7a.749.749,0,1,1,0-1.5h201.7a.747.747,0,0,1,.749.749Z" transform="translate(-397.537 -465.173)" fill="#ccc"/></g></svg>