<svg width="71" height="71" xmlns="http://www.w3.org/2000/svg" xmlns:xlink="http://www.w3.org/1999/xlink" overflow="hidden"><defs><clipPath id="clip0"><rect x="138" y="44" width="71" height="71"/></clipPath></defs><g clip-path="url(#clip0)" transform="translate(-138 -44)"><path d="M164.102 75.2792 156.183 83.1979 164.102 91.1166 165.148 90.0709 158.275 83.1979 165.148 76.325 164.102 75.2792Z" fill="#0F4768"/><path d="M181.852 76.325 188.725 83.1979 181.852 90.0709 182.898 91.1166 190.817 83.1979 182.898 75.2792 181.852 76.325Z" fill="#0F4768"/><path d="M169.124 91.778 176.52 74.7674 177.876 75.3572 170.48 92.3677Z" fill="#0F4768"/><path d="M143.917 102.427 203.083 102.427 203.083 56.5729 143.917 56.5729ZM145.396 100.948 145.396 68.4062 201.604 68.4062 201.604 100.948ZM201.604 58.0521 201.604 66.9271 145.396 66.9271 145.396 58.0521Z" fill="#0F4768"/><path d="M186.073 62.4896C186.073 63.3065 185.411 63.9688 184.594 63.9688 183.777 63.9688 183.115 63.3065 183.115 62.4896 183.115 61.6727 183.777 61.0104 184.594 61.0104 185.411 61.0104 186.073 61.6727 186.073 62.4896Z" fill="#0F4768"/><path d="M191.25 62.4896C191.25 63.3065 190.588 63.9688 189.771 63.9688 188.954 63.9688 188.292 63.3065 188.292 62.4896 188.292 61.6727 188.954 61.0104 189.771 61.0104 190.588 61.0104 191.25 61.6727 191.25 62.4896Z" fill="#0F4768"/><path d="M196.427 62.4896C196.427 63.3065 195.765 63.9688 194.948 63.9688 194.131 63.9688 193.469 63.3065 193.469 62.4896 193.469 61.6727 194.131 61.0104 194.948 61.0104 195.765 61.0104 196.427 61.6727 196.427 62.4896Z" fill="#0F4768"/></g></svg>