<svg width="71" height="71" xmlns="http://www.w3.org/2000/svg" xmlns:xlink="http://www.w3.org/1999/xlink" overflow="hidden"><defs><clipPath id="clip0"><rect x="454" y="46" width="71" height="71"/></clipPath></defs><g clip-path="url(#clip0)" transform="translate(-454 -46)"><path d="M522.042 70.4062 523.521 70.4062 523.521 71.8854 522.042 71.8854Z" fill="#0F4768"/><path d="M519.083 70.4062 520.562 70.4062 520.562 71.8854 519.083 71.8854Z" fill="#0F4768"/><path d="M510.208 70.4062 511.688 70.4062 511.688 71.8854 510.208 71.8854Z" fill="#0F4768"/><path d="M513.167 70.4062 514.646 70.4062 514.646 71.8854 513.167 71.8854Z" fill="#0F4768"/><path d="M507.25 70.4062 508.729 70.4062 508.729 71.8854 507.25 71.8854Z" fill="#0F4768"/><path d="M516.125 70.4062 517.604 70.4062 517.604 71.8854 516.125 71.8854Z" fill="#0F4768"/><path d="M504.292 70.4062 505.771 70.4062 505.771 71.8854 504.292 71.8854Z" fill="#0F4768"/><path d="M504.292 64.4896 505.771 64.4896 505.771 65.9688 504.292 65.9688Z" fill="#0F4768"/><path d="M504.292 67.4479 505.771 67.4479 505.771 68.9271 504.292 68.9271Z" fill="#0F4768"/><path d="M504.292 55.6146 505.771 55.6146 505.771 57.0938 504.292 57.0938Z" fill="#0F4768"/><path d="M504.292 61.5312 505.771 61.5312 505.771 63.0104 504.292 63.0104Z" fill="#0F4768"/><path d="M504.292 58.5729 505.771 58.5729 505.771 60.0521 504.292 60.0521Z" fill="#0F4768"/><path d="M504.292 52.6562 505.771 52.6562 505.771 54.1354 504.292 54.1354Z" fill="#0F4768"/><path d="M519.083 52.6562 520.562 52.6562 520.562 54.1354 519.083 54.1354Z" fill="#0F4768"/><path d="M513.167 52.6562 514.646 52.6562 514.646 54.1354 513.167 54.1354Z" fill="#0F4768"/><path d="M510.208 52.6562 511.688 52.6562 511.688 54.1354 510.208 54.1354Z" fill="#0F4768"/><path d="M507.25 52.6562 508.729 52.6562 508.729 54.1354 507.25 54.1354Z" fill="#0F4768"/><path d="M516.125 52.6562 517.604 52.6562 517.604 54.1354 516.125 54.1354Z" fill="#0F4768"/><path d="M522.042 52.6562 523.521 52.6562 523.521 54.1354 522.042 54.1354Z" fill="#0F4768"/><path d="M522.042 58.5729 523.521 58.5729 523.521 60.0521 522.042 60.0521Z" fill="#0F4768"/><path d="M522.042 64.4896 523.521 64.4896 523.521 65.9688 522.042 65.9688Z" fill="#0F4768"/><path d="M522.042 61.5312 523.521 61.5312 523.521 63.0104 522.042 63.0104Z" fill="#0F4768"/><path d="M522.042 67.4479 523.521 67.4479 523.521 68.9271 522.042 68.9271Z" fill="#0F4768"/><path d="M522.042 55.6146 523.521 55.6146 523.521 57.0938 522.042 57.0938Z" fill="#0F4768"/><path d="M463.615 60.7791 463.615 62.2708 502.073 62.2583 502.073 60.7791 463.615 60.7791Z" fill="#0F4768"/><path d="M513.909 68.1875 515.388 68.1875 515.388 62.2583 515.388 60.7791 513.909 60.7791 507.99 60.7791 507.99 62.2583 513.909 62.2583 513.909 68.1875Z" fill="#0F4768"/><path d="M463.615 82.2396 463.615 93.3296 463.615 94.8088 465.094 94.8088 513.909 94.8088 515.388 94.8088 515.388 93.3296 515.388 74.1042 513.909 74.1042 513.909 93.3296 465.094 93.3296 465.094 82.2396 463.615 82.2396Z" fill="#0F4768"/><path d="M461.396 60.0388C461.396 59.2218 462.058 58.5596 462.875 58.5596L502.073 58.5596 502.073 57.0804 462.875 57.0804C461.243 57.0853 459.922 58.407 459.917 60.0388L459.917 62.2708 461.396 62.2708Z" fill="#0F4768"/><path d="M517.604 60.0388 517.604 68.1875 519.083 68.1875 519.083 60.0388C519.078 58.407 517.757 57.0853 516.125 57.0804L507.99 57.0804 507.99 58.5596 516.125 58.5596C516.942 58.5596 517.604 59.2218 517.604 60.0388Z" fill="#0F4768"/><path d="M517.604 95.5521C517.604 96.369 516.942 97.0312 516.125 97.0312L462.875 97.0312C462.058 97.0312 461.396 96.369 461.396 95.5521L461.396 82.2396 459.917 82.2396 459.917 95.5521C459.922 97.1837 461.243 98.5052 462.875 98.5104L484.323 98.5104 484.323 105.906 476.188 105.906 476.188 107.385 502.812 107.385 502.812 105.906 494.677 105.906 494.677 98.5104 516.125 98.5104C517.757 98.5052 519.078 97.1837 519.083 95.5521L519.083 74.1042 517.604 74.1042ZM493.198 105.906 485.802 105.906 485.802 98.5104 493.198 98.5104Z" fill="#0F4768"/><path d="M474.708 64.4896 455.479 64.4896 455.479 80.0208 474.708 80.0208ZM473.229 78.5417 456.958 78.5417 456.958 65.9688 473.229 65.9688Z" fill="#0F4768"/><path d="M460.656 68.9271 469.531 68.9271 469.531 70.4062 460.656 70.4062Z" fill="#0F4768"/><path d="M460.656 73.3646 466.573 73.3646 466.573 74.8438 460.656 74.8438Z" fill="#0F4768"/><path d="M489.5 88.1562C495.218 88.1562 499.854 83.5205 499.854 77.8021 499.854 72.0836 495.218 67.4479 489.5 67.4479 483.782 67.4479 479.146 72.0836 479.146 77.8021 479.152 83.518 483.784 88.1501 489.5 88.1562ZM484.333 85.0034C484.441 82.1495 486.842 79.9235 489.696 80.0315 492.398 80.1337 494.565 82.301 494.667 85.0034 491.584 87.2349 487.416 87.2349 484.333 85.0034ZM487.281 76.3229C487.281 75.0975 488.275 74.1042 489.5 74.1042 490.725 74.1042 491.719 75.0975 491.719 76.3229 491.719 77.5483 490.725 78.5417 489.5 78.5417 488.275 78.5417 487.281 77.5483 487.281 76.3229ZM489.5 68.9271C494.393 68.9195 498.366 72.8802 498.374 77.7735 498.377 80.0137 497.532 82.1721 496.008 83.8142 495.544 81.6547 494.042 79.8645 491.996 79.032 493.502 77.6526 493.605 75.3135 492.226 73.8074 490.846 72.3013 488.507 72.1986 487.001 73.578 485.495 74.9573 485.392 77.2964 486.771 78.8025 486.845 78.8824 486.921 78.9589 487.001 79.032 484.956 79.8652 483.455 81.6553 482.992 83.8142 479.663 80.2272 479.873 74.6212 483.459 71.2926 485.101 69.7689 487.26 68.9236 489.5 68.9271Z" fill="#0F4768"/><path d="M510.022 84.1684C510.022 84.1063 509.96 84.0442 509.836 83.982L502.443 81.5 502.381 81.5C502.247 81.5089 502.141 81.6152 502.132 81.7485L502.132 81.8106 504.556 89.2656C504.615 89.382 504.736 89.4544 504.866 89.452 504.928 89.452 504.991 89.3899 505.053 89.2656L505.981 86.7289C505.983 86.7256 505.988 86.7249 505.991 86.7274 505.992 86.7278 505.992 86.7283 505.993 86.7289L508.904 89.6354 510.208 88.3308 507.297 85.4198C507.294 85.4169 507.293 85.4118 507.296 85.4083 507.297 85.408 507.297 85.4076 507.297 85.4072L509.839 84.479C509.954 84.4188 510.025 84.2984 510.022 84.1684Z" fill="#0F4768"/></g></svg>