<svg width="72" height="71" xmlns="http://www.w3.org/2000/svg" xmlns:xlink="http://www.w3.org/1999/xlink" overflow="hidden"><defs><clipPath id="clip0"><rect x="451" y="545" width="72" height="71"/></clipPath></defs><g clip-path="url(#clip0)" transform="translate(-451 -545)"><path d="M20.7083 8.53553 39.9375 8.53553 39.9375 18.8897 50.2917 18.8897 50.2917 29.9834 51.7708 29.9834 51.7708 17.8439 40.9833 7.05636 19.2292 7.05636 19.2292 29.9834 20.7083 29.9834ZM41.4292 9.59387 49.2333 17.398C49.2362 17.4008 49.2361 17.4056 49.2332 17.4084 49.2318 17.4097 49.2301 17.4105 49.2281 17.4105L41.4167 17.4105 41.4167 9.59905C41.4167 9.59498 41.4201 9.59173 41.4241 9.59173 41.4261 9.5918 41.4279 9.59254 41.4292 9.59387Z" fill="#0F4768" transform="matrix(1.01408 0 0 1 451 545)"/><path d="M58.3531 37.4466C58.8767 36.7994 59.1636 35.9929 59.1667 35.1605 59.1642 33.1192 57.5101 31.4651 55.4688 31.4626L15.5312 31.4626C13.4899 31.4651 11.8358 33.1192 11.8333 35.1605 11.8364 35.9929 12.1233 36.7994 12.6469 37.4466 10.893 37.7675 9.61791 39.2942 9.61458 41.0772L9.61458 60.3064C9.61702 62.3477 11.2712 64.0018 13.3125 64.0043L57.6875 64.0043C59.7288 64.0018 61.383 62.3477 61.3854 60.3064L61.3854 41.0772C61.3821 39.2942 60.107 37.7675 58.3531 37.4466ZM57.6875 35.1605C57.6875 36.3859 56.6942 37.3793 55.4688 37.3793L54.7292 37.3793 54.7292 32.9418 55.4688 32.9418C56.6942 32.9418 57.6875 33.9351 57.6875 35.1605ZM25.8854 37.3793 17.75 37.3793 17.75 32.9418 53.25 32.9418 53.25 37.3793 25.8854 37.3793ZM45.0813 38.8584C44.7374 41.7007 40.4959 44.0355 35.5 44.0355 30.5041 44.0355 26.2626 41.7007 25.9187 38.8584ZM15.5312 32.9418 16.2708 32.9418 16.2708 37.3793 15.5312 37.3793C14.3058 37.3793 13.3125 36.3859 13.3125 35.1605 13.3125 33.9351 14.3058 32.9418 15.5312 32.9418ZM59.9062 60.3064C59.9062 61.5318 58.9129 62.5251 57.6875 62.5251L13.3125 62.5251C12.0871 62.5251 11.0938 61.5318 11.0938 60.3064L11.0938 41.0772C11.0938 39.8518 12.0871 38.8584 13.3125 38.8584L24.421 38.8584C24.7169 42.62 29.4754 45.5147 35.5 45.5147 41.5246 45.5147 46.2853 42.62 46.579 38.8584L57.6875 38.8584C58.9129 38.8584 59.9062 39.8518 59.9062 41.0772Z" fill="#0F4768" transform="matrix(1.01408 0 0 1 451 545)"/><path d="M16.2708 51.4314C16.2708 52.2483 15.6086 52.9105 14.7917 52.9105 13.9747 52.9105 13.3125 52.2483 13.3125 51.4314 13.3125 50.6144 13.9747 49.9522 14.7917 49.9522 15.6086 49.9522 16.2708 50.6144 16.2708 51.4314Z" fill="#0F4768" transform="matrix(1.01408 0 0 1 451 545)"/><path d="M22.1875 51.4314C22.1875 52.2483 21.5253 52.9105 20.7083 52.9105 19.8914 52.9105 19.2292 52.2483 19.2292 51.4314 19.2292 50.6144 19.8914 49.9522 20.7083 49.9522 21.5253 49.9522 22.1875 50.6144 22.1875 51.4314Z" fill="#0F4768" transform="matrix(1.01408 0 0 1 451 545)"/><path d="M28.1042 51.4314C28.1042 52.2483 27.4419 52.9105 26.625 52.9105 25.8081 52.9105 25.1458 52.2483 25.1458 51.4314 25.1458 50.6144 25.8081 49.9522 26.625 49.9522 27.4419 49.9522 28.1042 50.6144 28.1042 51.4314Z" fill="#0F4768" transform="matrix(1.01408 0 0 1 451 545)"/><path d="M34.0208 51.4314C34.0208 52.2483 33.3586 52.9105 32.5417 52.9105 31.7247 52.9105 31.0625 52.2483 31.0625 51.4314 31.0625 50.6144 31.7247 49.9522 32.5417 49.9522 33.3586 49.9522 34.0208 50.6144 34.0208 51.4314Z" fill="#0F4768" transform="matrix(1.01408 0 0 1 451 545)"/><path d="M39.9375 51.4314C39.9375 52.2483 39.2753 52.9105 38.4583 52.9105 37.6414 52.9105 36.9792 52.2483 36.9792 51.4314 36.9792 50.6144 37.6414 49.9522 38.4583 49.9522 39.2753 49.9522 39.9375 50.6144 39.9375 51.4314Z" fill="#0F4768" transform="matrix(1.01408 0 0 1 451 545)"/><path d="M45.8542 51.4314C45.8542 52.2483 45.1919 52.9105 44.375 52.9105 43.5581 52.9105 42.8958 52.2483 42.8958 51.4314 42.8958 50.6144 43.5581 49.9522 44.375 49.9522 45.1919 49.9522 45.8542 50.6144 45.8542 51.4314Z" fill="#0F4768" transform="matrix(1.01408 0 0 1 451 545)"/><path d="M51.7708 51.4314C51.7708 52.2483 51.1086 52.9105 50.2917 52.9105 49.4747 52.9105 48.8125 52.2483 48.8125 51.4314 48.8125 50.6144 49.4747 49.9522 50.2917 49.9522 51.1086 49.9522 51.7708 50.6144 51.7708 51.4314Z" fill="#0F4768" transform="matrix(1.01408 0 0 1 451 545)"/><path d="M57.6875 51.4314C57.6875 52.2483 57.0253 52.9105 56.2083 52.9105 55.3914 52.9105 54.7292 52.2483 54.7292 51.4314 54.7292 50.6144 55.3914 49.9522 56.2083 49.9522 57.0253 49.9522 57.6875 50.6144 57.6875 51.4314Z" fill="#0F4768" transform="matrix(1.01408 0 0 1 451 545)"/><path d="M19.2292 56.6084C19.2292 57.4254 18.5669 58.0876 17.75 58.0876 16.9331 58.0876 16.2708 57.4254 16.2708 56.6084 16.2708 55.7915 16.9331 55.1293 17.75 55.1293 18.5669 55.1293 19.2292 55.7915 19.2292 56.6084Z" fill="#0F4768" transform="matrix(1.01408 0 0 1 451 545)"/><path d="M25.1458 56.6084C25.1458 57.4254 24.4836 58.0876 23.6667 58.0876 22.8497 58.0876 22.1875 57.4254 22.1875 56.6084 22.1875 55.7915 22.8497 55.1293 23.6667 55.1293 24.4836 55.1293 25.1458 55.7915 25.1458 56.6084Z" fill="#0F4768" transform="matrix(1.01408 0 0 1 451 545)"/><path d="M31.0625 56.6084C31.0625 57.4254 30.4003 58.0876 29.5833 58.0876 28.7664 58.0876 28.1042 57.4254 28.1042 56.6084 28.1042 55.7915 28.7664 55.1293 29.5833 55.1293 30.4003 55.1293 31.0625 55.7915 31.0625 56.6084Z" fill="#0F4768" transform="matrix(1.01408 0 0 1 451 545)"/><path d="M36.9792 56.6084C36.9792 57.4254 36.3169 58.0876 35.5 58.0876 34.6831 58.0876 34.0208 57.4254 34.0208 56.6084 34.0208 55.7915 34.6831 55.1293 35.5 55.1293 36.3169 55.1293 36.9792 55.7915 36.9792 56.6084Z" fill="#0F4768" transform="matrix(1.01408 0 0 1 451 545)"/><path d="M42.8958 56.6084C42.8958 57.4254 42.2336 58.0876 41.4167 58.0876 40.5997 58.0876 39.9375 57.4254 39.9375 56.6084 39.9375 55.7915 40.5997 55.1293 41.4167 55.1293 42.2336 55.1293 42.8958 55.7915 42.8958 56.6084Z" fill="#0F4768" transform="matrix(1.01408 0 0 1 451 545)"/><path d="M48.8125 56.6084C48.8125 57.4254 48.1503 58.0876 47.3333 58.0876 46.5164 58.0876 45.8542 57.4254 45.8542 56.6084 45.8542 55.7915 46.5164 55.1293 47.3333 55.1293 48.1503 55.1293 48.8125 55.7915 48.8125 56.6084Z" fill="#0F4768" transform="matrix(1.01408 0 0 1 451 545)"/><path d="M54.7292 56.6084C54.7292 57.4254 54.0669 58.0876 53.25 58.0876 52.4331 58.0876 51.7708 57.4254 51.7708 56.6084 51.7708 55.7915 52.4331 55.1293 53.25 55.1293 54.0669 55.1293 54.7292 55.7915 54.7292 56.6084Z" fill="#0F4768" transform="matrix(1.01408 0 0 1 451 545)"/></g></svg>